# xmcd CD database file
#
# Track frame offsets:
#	150
#	17262
#	38500
#	55827
#	73827
#	94612
#	106432
#	125467
#	145812
#	161990
#
# Disc length: 2466 seconds
#
# Revision: 0
# Processed by: cddbd v1.5PL3 Copyright (c) Steve Scherf et al.
# Submitted via: CDex 1.50beta10
#
DISCID=8009a00a
DTITLE=EARTHSHAKER - OVERRUN
DYEAR=1986
DGENRE=Rock
TTITLE0=DON'T NEED TO SURRENDER
TTITLE1=GAMBLER
TTITLE2=LITTLE GIRL
TTITLE3=SILENT ANIMAL
TTITLE4=HEARTBREAK NIGHT
TTITLE5=PAPER MUSIC
TTITLE6=いま君にまた逢えて
TTITLE7=なくした唄を
TTITLE8=I'M LIKE A GYPSY YOU'RE LIKE A GYPSY
TTITLE9=銀のピアス
EXTD=YEAR: 1986
EXTT0=
EXTT1=
EXTT2=
EXTT3=
EXTT4=
EXTT5=
EXTT6=
EXTT7=
EXTT8=
EXTT9=
PLAYORDER=
